<?xml version="1.0" standalone="no"?>
<!DOCTYPE svg PUBLIC "-//W3C//DTD SVG 20010904//EN"
 "http://www.w3.org/TR/2001/REC-SVG-20010904/DTD/svg10.dtd">
<svg version="1.0" xmlns="http://www.w3.org/2000/svg"
 width="283.000000pt" height="301.000000pt" viewBox="0 0 283.000000 301.000000"
 preserveAspectRatio="xMidYMid meet">
<metadata>
Created by potrace 1.13, written by Peter Selinger 2001-2015
</metadata>
<g transform="translate(0.000000,301.000000) scale(0.100000,-0.100000)"
fill="#000000" stroke="none">
<path d="M60 1500 l0 -1440 1355 0 1355 0 0 1440 0 1440 -1355 0 -1355 0 0
-1440z m1304 913 l-6 -188 -86 -84 c-48 -47 -136 -132 -196 -190 l-109 -105
197 -191 197 -190 -1 -183 c0 -105 -4 -182 -9 -180 -21 7 -761 742 -758 752 4
13 759 745 769 745 4 1 5 -83 2 -186z m482 -184 c211 -204 384 -375 384 -379
0 -9 -747 -743 -761 -748 -5 -2 -9 76 -9 180 l-1 183 197 191 197 191 -109
105 c-60 58 -148 143 -196 189 l-86 84 -5 188 c-3 103 -3 187 0 187 2 0 177
-167 389 -371z m-1118 -1394 c29 -24 29 -24 47 -5 28 30 38 24 31 -17 -20
-115 -28 -143 -42 -143 -8 0 -14 10 -14 23 0 38 -20 97 -41 118 -41 41 -111
13 -149 -60 -30 -60 -52 -161 -47 -215 3 -40 11 -55 36 -78 17 -16 43 -28 57
-28 36 0 85 32 107 69 10 17 25 31 33 31 43 0 -25 -100 -85 -124 -53 -21 -96
-20 -146 3 -74 34 -105 85 -105 174 0 70 14 116 53 173 63 94 199 135 265 79z
m371 -92 c12 -65 24 -126 27 -135 5 -16 -2 -18 -44 -18 -50 0 -50 0 -56 38
-18 106 -15 103 -52 32 -18 -36 -33 -68 -34 -72 0 -5 42 -8 94 -8 98 0 106 -4
106 -48 0 -9 5 -34 11 -54 9 -36 12 -38 50 -38 32 0 41 4 49 23 19 47 82 327
76 342 -3 8 -15 15 -26 15 -11 0 -20 7 -20 15 0 13 22 15 134 15 121 0 136 -2
166 -22 76 -51 53 -162 -37 -184 -30 -8 -29 -20 2 -28 35 -9 67 -63 61 -103
-15 -99 -61 -113 -374 -113 -215 0 -233 1 -230 17 2 9 14 20 28 23 22 5 24 10
21 45 -1 22 -5 43 -8 48 -2 4 -33 7 -69 7 -63 0 -65 -1 -81 -34 -19 -40 -12
-66 17 -66 15 0 20 -5 18 -17 -3 -15 -16 -18 -81 -21 -63 -2 -77 0 -77 12 0 9
10 21 23 27 12 7 29 22 37 33 17 24 136 240 181 329 20 39 35 57 48 57 16 0
22 -17 40 -117z m815 100 c3 -10 12 -56 20 -103 8 -47 18 -100 22 -117 l7 -33
-51 0 -50 0 -8 68 -9 67 -37 -67 c-21 -36 -38 -69 -38 -72 0 -3 45 -6 99 -6
l99 0 7 -60 c8 -69 20 -82 72 -78 l38 3 43 174 c23 96 40 181 38 188 -3 7 -15
13 -26 13 -11 0 -20 7 -20 15 0 12 19 15 110 15 93 0 109 -2 104 -15 -4 -8
-14 -15 -24 -15 -10 0 -23 -7 -30 -15 -15 -18 -92 -335 -85 -352 7 -20 86 -16
122 7 18 10 44 37 59 60 26 38 55 54 53 28 -1 -7 -8 -42 -17 -78 l-17 -65
-283 -3 c-266 -2 -283 -1 -280 15 2 11 14 19 31 21 29 4 30 7 21 65 l-7 37
-67 0 -67 0 -18 -39 c-19 -43 -14 -61 16 -61 12 0 19 -7 19 -20 0 -18 -7 -20
-80 -20 -65 0 -80 3 -80 15 0 9 11 20 25 25 29 11 36 21 157 247 91 170 118
201 132 156z"/>
<path d="M1436 812 c-5 -9 -36 -138 -36 -153 0 -12 57 -11 82 2 21 11 48 66
48 99 0 11 -9 29 -20 40 -20 20 -64 27 -74 12z"/>
<path d="M1399 613 c-13 -3 -49 -121 -49 -161 0 -16 90 -15 111 1 54 42 50
157 -6 157 -7 0 -19 2 -27 4 -7 2 -20 2 -29 -1z"/>
</g>
</svg>
